#N canvas 228 136 784 604 10;
#X msg 145 48 125;
#X msg 187 51 250;
#X msg 233 51 500;
#X msg 278 48 1000;
#X obj 120 96 metro 250;
#X obj 79 52 tgl 15 0 empty empty empty 17 7 0 10 -262144 -1 -1 0 1
;
#X obj 119 136 f, f 4;
#X obj 179 137 + 1;
#X obj 118 172 mod 8;
#X floatatom 153 206 5 0 0 0 - - -;
#X obj 120 248 hradio 15 1 0 8 empty empty empty 0 -8 0 10 -204786
-1 -1 7;
#X obj 140 274 sel 0 1 2 3 4 5 6 7;
#X msg 117 331 60;
#X msg 155 332 62;
#X msg 193 334 64;
#X msg 232 333 65;
#X msg 275 332 67;
#X msg 313 331 69;
#X msg 353 331 70;
#X msg 395 332 72;
#X obj 118 385 mtof;
#X floatatom 172 406 5 0 0 0 - - -;
#X obj 105 430 phasor~;
#X obj 102 470 dac~;
#X msg 642 463 \; pd dsp \$1;
#X connect 0 0 4 1;
#X connect 1 0 4 1;
#X connect 2 0 4 1;
#X connect 3 0 4 1;
#X connect 4 0 6 0;
#X connect 5 0 4 0;
#X connect 6 0 7 0;
#X connect 6 0 8 0;
#X connect 7 0 6 1;
#X connect 8 0 9 0;
#X connect 8 0 10 0;
#X connect 10 0 11 0;
#X connect 11 0 12 0;
#X connect 11 1 16 0;
#X connect 11 2 13 0;
#X connect 11 3 14 0;
#X connect 11 4 19 0;
#X connect 11 5 17 0;
#X connect 11 6 18 0;
#X connect 11 7 15 0;
#X connect 11 8 16 0;
#X connect 12 0 20 0;
#X connect 13 0 20 0;
#X connect 14 0 20 0;
#X connect 15 0 20 0;
#X connect 16 0 20 0;
#X connect 17 0 20 0;
#X connect 18 0 20 0;
#X connect 19 0 20 0;
#X connect 20 0 22 0;
#X connect 22 0 23 0;
#X connect 22 0 23 1;
