#N canvas 1232 251 784 604 10;
#X msg 145 48 125;
#X msg 187 51 250;
#X msg 233 51 500;
#X msg 278 48 1000;
#X obj 120 96 metro 250;
#X obj 79 52 tgl 15 0 empty empty empty 17 7 0 10 -262144 -1 -1 0 1
;
#X obj 119 136 f, f 4;
#X obj 179 137 + 1;
#X obj 118 172 mod 8;
#X floatatom 153 206 5 0 0 0 - - -;
#X obj 120 248 hradio 15 1 0 8 empty empty empty 0 -8 0 10 -204786
-1 -1 7;
#X obj 118 385 mtof;
#X floatatom 172 406 5 0 0 0 - - -;
#X obj 102 470 dac~;
#X msg 647 552 \; pd dsp \$1;
#X obj 649 491 tgl 15 0 empty empty empty 17 7 0 10 -262144 -1 -1 0
1;
#X floatatom 172 338 5 0 0 0 - - -;
#X obj 117 332 int;
#X floatatom 67 374 5 0 0 0 - - -;
#X obj 120 286 tabread arr1;
#N canvas 0 22 450 278 (subpatch) 0;
#X array arr1 8 float 3;
#A 0 340.866 398.642 340.866 296.85 245.072 337.48 149.857 469.528
;
#X coords 0 70 8 500 200 140 1 0 0;
#X restore 516 296 graph;
#X obj 105 430 osc~;
#X obj 473 40 vsl 15 128 500 70 0 0 empty empty empty 0 -9 0 10 -262144
-1 -1 900 1;
#X floatatom 524 135 5 0 0 0 - - -;
#X obj 556 171 tabwrite arr1;
#X floatatom 622 131 5 0 8 0 - - -;
#X connect 0 0 4 1;
#X connect 1 0 4 1;
#X connect 2 0 4 1;
#X connect 3 0 4 1;
#X connect 4 0 6 0;
#X connect 5 0 4 0;
#X connect 6 0 7 0;
#X connect 6 0 8 0;
#X connect 7 0 6 1;
#X connect 8 0 9 0;
#X connect 8 0 10 0;
#X connect 10 0 19 0;
#X connect 11 0 21 0;
#X connect 11 0 12 0;
#X connect 15 0 14 0;
#X connect 17 0 11 0;
#X connect 17 0 18 0;
#X connect 19 0 16 0;
#X connect 19 0 17 0;
#X connect 21 0 13 0;
#X connect 21 0 13 1;
#X connect 22 0 23 0;
#X connect 23 0 24 0;
#X connect 25 0 24 1;
