#N canvas -72 23 1462 1077 10;
#X obj 217 114 bng 15 250 50 0 empty empty empty 17 7 0 10 -262144
-1 -1;
#N canvas 0 22 450 278 (subpatch) 0;
#X array channelL 117600 float 2;
#X coords 0 1 117600 -1 200 140 1;
#X restore 909 169 graph;
#X obj 214 152 openpanel;
#N canvas 0 22 450 278 (subpatch) 0;
#X array channelR 117600 float 2;
#X coords 0 1 117600 -1 200 140 1 0 0;
#X restore 911 365 graph;
#X msg 215 201 read -resize \$1 channelL channelR;
#X obj 211 238 soundfiler;
#X floatatom 270 280 5 0 0 0 - - -;
#X obj 270 300 s sampleSize;
#X obj 210 331 expr 44100 / $f1;
#X floatatom 250 362 5 0 0 0 - - -;
#X obj 209 392 phasor~;
#X obj 208 443 *~;
#X obj 278 419 r sampleSize;
#X obj 140 531 tabread4~ channelL;
#X obj 301 529 tabread4~ channelL;
#X obj 217 698 *~;
#X obj 257 697 *~;
#X obj 210 763 dac~ 1 2;
#X obj 314 589 vsl 40 60 0 1 0 0 empty empty empty 0 -9 0 10 -262144
-1 -1 5900 1;
#X connect 0 0 2 0;
#X connect 2 0 4 0;
#X connect 4 0 5 0;
#X connect 5 0 6 0;
#X connect 5 0 8 0;
#X connect 6 0 7 0;
#X connect 8 0 9 0;
#X connect 8 0 10 0;
#X connect 10 0 11 0;
#X connect 11 0 13 0;
#X connect 11 0 14 0;
#X connect 12 0 11 1;
#X connect 13 0 15 0;
#X connect 14 0 16 0;
#X connect 15 0 17 0;
#X connect 16 0 17 1;
#X connect 18 0 16 1;
#X connect 18 0 15 1;
