#N canvas 462 215 898 676 10;
#X obj 103 105 metro 250;
#X obj 79 52 tgl 15 0 empty empty empty 17 7 0 10 -262144 -1 -1 0 1
;
#X obj 119 136 f, f 4;
#X obj 179 137 + 1;
#X floatatom 153 206 5 0 0 0 - - -;
#X obj 88 236 hradio 15 1 0 16 empty empty empty 0 -8 0 10 -204786
-1 -1 2;
#X obj 97 442 mtof;
#X floatatom 151 463 5 0 0 0 - - -;
#X obj 81 527 dac~;
#X msg 14 106 \; pd dsp \$1;
#X obj 84 487 osc~;
#X text 473 166 45 48 40;
#X msg 118 381 45;
#X msg 193 380 48;
#X msg 257 381 40;
#X obj 119 172 mod 16;
#X obj 119 316 sel 0 1 2 3 4 5 6 7 8 9 10 11 12 13 14 15;
#N canvas 921 654 811 386 bpm 0;
#X obj 159 95 inlet;
#X text 210 97 bpm;
#X obj 268 98 inlet;
#X text 322 97 note value;
#X floatatom 157 136 5 0 0 0 - - -;
#X obj 281 178 select 0 1 2 3;
#X obj 155 175 t b f;
#X msg 130 213 60000;
#X obj 160 245 /;
#X obj 152 274 int;
#X floatatom 112 300 5 0 0 0 - - -;
#X msg 273 236 0.25;
#X msg 280 261 0.5;
#X msg 296 283 1;
#X msg 312 315 1.5;
#X obj 216 305 * 1;
#X floatatom 188 347 5 0 0 0 - - -;
#X obj 263 355 outlet;
#X text 399 219 16th;
#X text 388 245 8th;
#X text 380 267 quarter;
#X text 377 295 dotted quarter;
#X obj 268 138 t b f;
#X obj 243 230 bng 15 250 50 0 empty empty empty 17 7 0 10 -262144
-1 -1;
#X connect 0 0 4 0;
#X connect 2 0 22 0;
#X connect 4 0 6 0;
#X connect 5 0 11 0;
#X connect 5 0 23 0;
#X connect 5 1 12 0;
#X connect 5 2 13 0;
#X connect 5 3 14 0;
#X connect 6 0 7 0;
#X connect 6 1 8 1;
#X connect 7 0 8 0;
#X connect 8 0 9 0;
#X connect 9 0 10 0;
#X connect 9 0 15 0;
#X connect 11 0 15 1;
#X connect 12 0 15 1;
#X connect 13 0 15 1;
#X connect 14 0 15 1;
#X connect 15 0 16 0;
#X connect 15 0 17 0;
#X connect 22 0 4 0;
#X connect 22 1 5 0;
#X restore 256 96 pd bpm;
#X obj 281 5 vsl 15 64 0 180 0 0 empty empty empty 0 -9 0 10 -262144
-1 -1 3600 1;
#X obj 333 0 vradio 15 1 0 4 empty empty empty 0 -8 0 10 -262144 -1
-1 0;
#X floatatom 341 101 5 0 0 0 - - -;
#X floatatom 273 134 5 0 0 0 - - -;
#X connect 0 0 2 0;
#X connect 1 0 0 0;
#X connect 1 0 9 0;
#X connect 2 0 3 0;
#X connect 2 0 15 0;
#X connect 3 0 2 1;
#X connect 5 0 16 0;
#X connect 6 0 10 0;
#X connect 10 0 8 0;
#X connect 10 0 8 1;
#X connect 12 0 6 0;
#X connect 13 0 6 0;
#X connect 14 0 6 0;
#X connect 15 0 4 0;
#X connect 15 0 5 0;
#X connect 16 0 12 0;
#X connect 16 1 12 0;
#X connect 16 2 12 0;
#X connect 16 3 12 0;
#X connect 16 4 13 0;
#X connect 16 5 13 0;
#X connect 16 6 13 0;
#X connect 16 7 13 0;
#X connect 16 8 14 0;
#X connect 16 9 14 0;
#X connect 16 10 14 0;
#X connect 16 11 14 0;
#X connect 16 12 14 0;
#X connect 16 13 14 0;
#X connect 16 14 14 0;
#X connect 16 15 14 0;
#X connect 17 0 21 0;
#X connect 17 0 0 1;
#X connect 18 0 17 0;
#X connect 18 0 20 0;
#X connect 19 0 17 1;
